<?xml version="1.0" standalone="no"?>
<!DOCTYPE svg PUBLIC "-//W3C//DTD SVG 20010904//EN"
 "http://www.w3.org/TR/2001/REC-SVG-20010904/DTD/svg10.dtd">
<svg version="1.0" xmlns="http://www.w3.org/2000/svg"
 width="165.000000pt" height="140.000000pt" viewBox="0 0 165.000000 140.000000"
 preserveAspectRatio="xMidYMid meet">
<metadata>
Created by potrace 1.10, written by Peter Selinger 2001-2011
</metadata>
<g transform="translate(0.000000,140.000000) scale(0.100000,-0.100000)"
fill="#0011ff" stroke="none">
<path d="M821 1373 c-1 -13 -6 -23 -12 -23 -6 0 -9 -6 -6 -12 2 -7 10 -12 17
-10 9 2 8 -5 -4 -23 -9 -14 -14 -30 -10 -36 8 -13 -15 -69 -30 -70 -6 -1 -18
-1 -27 0 -9 1 -19 -6 -23 -16 -3 -10 -9 -23 -12 -30 -3 -7 2 -10 15 -6 16 4
19 1 14 -16 -7 -28 -46 -27 -74 2 l-22 22 7 -30 c10 -41 31 -55 81 -51 39 3
41 2 37 -20 -2 -13 -9 -24 -14 -24 -7 0 -8 -16 -5 -40 4 -29 1 -40 -8 -40 -7
0 -18 -7 -25 -15 -7 -8 -23 -15 -36 -15 -33 0 -32 -37 1 -52 14 -6 25 -15 25
-20 0 -5 -12 -1 -26 8 -23 16 -27 16 -41 2 -8 -9 -12 -21 -9 -27 10 -15 29
-14 20 2 -4 6 -4 9 1 5 4 -4 13 -3 20 2 8 7 19 2 35 -15 13 -14 29 -25 36 -25
18 0 25 -28 7 -34 -17 -7 -36 2 -28 13 2 5 -7 19 -20 31 -14 13 -25 18 -25 11
0 -7 -4 -10 -9 -7 -4 3 -19 -5 -32 -17 l-24 -23 -58 49 c-63 54 -94 58 -114
15 -15 -34 -4 -53 60 -98 31 -23 57 -43 57 -46 0 -3 -7 -18 -15 -34 -15 -29
-17 -29 -91 -28 l-76 1 -42 -122 c-22 -67 -42 -115 -44 -107 -3 12 41 162 54
187 2 3 -2 14 -9 23 -9 13 -29 18 -75 19 l-62 2 -69 -203 c-38 -111 -74 -209
-81 -217 -10 -12 -9 -15 3 -15 9 0 18 4 22 9 3 5 36 19 73 30 37 12 80 33 95
47 26 24 40 21 15 -4 -15 -15 -14 -15 47 3 28 9 64 18 80 21 17 3 47 9 68 13
28 7 37 6 37 -4 0 -19 -9 -23 -65 -27 -28 -2 -52 -6 -55 -10 -4 -4 -22 -9 -42
-10 -20 -2 -34 -6 -31 -10 2 -5 0 -8 -6 -8 -5 0 -17 -3 -27 -7 -12 -4 -15 -3
-10 5 5 8 2 10 -8 6 -9 -3 -13 -11 -9 -17 4 -7 0 -8 -11 -4 -10 4 -24 1 -33
-9 -9 -8 -22 -13 -30 -10 -8 3 -12 2 -9 -3 3 -4 -12 -7 -34 -5 -50 3 -53 -11
-4 -19 23 -4 47 -1 65 8 15 8 35 15 44 15 10 0 31 6 48 14 53 25 306 76 417
85 58 5 158 8 222 6 80 -2 119 1 122 9 2 6 5 4 5 -4 1 -12 12 -16 48 -15 25 0
48 5 50 10 4 12 -27 15 -252 17 -234 2 -360 -10 -377 -36 -5 -6 -8 -2 -8 10 0
15 9 24 33 30 l32 10 14 107 c14 105 15 107 41 107 l26 0 -11 -105 c-6 -58
-10 -107 -9 -108 2 -1 23 -1 47 1 l45 4 6 45 c3 25 6 72 6 104 0 38 4 59 12
59 8 0 9 -27 4 -100 l-6 -100 127 0 c71 0 138 -3 151 -6 17 -5 22 -2 22 11 0
16 2 17 18 3 23 -21 99 -33 116 -19 10 9 15 8 19 -2 3 -8 27 -18 52 -22 39 -5
198 -44 293 -71 12 -3 22 -10 22 -15 0 -5 10 -9 22 -9 20 0 20 1 5 18 -10 10
-17 27 -17 38 0 10 -9 39 -20 63 -17 36 -17 42 -4 37 8 -3 24 3 36 13 l20 20
-30 87 c-44 125 -42 124 -251 127 -94 1 -171 -1 -171 -5 0 -21 -22 -3 -40 32
-11 22 -23 40 -26 40 -12 0 -53 -33 -49 -40 2 -4 -7 -12 -20 -18 -18 -8 -26
-8 -31 0 -5 7 -3 8 6 3 8 -5 11 -3 8 6 -3 8 -10 14 -15 14 -34 0 -15 49 22 59
11 3 49 33 84 66 70 67 104 76 109 29 3 -22 -6 -33 -50 -64 -29 -21 -48 -32
-41 -24 6 8 11 18 11 24 0 5 8 12 18 15 13 5 14 9 5 14 -14 9 -59 -18 -68 -40
-3 -7 -10 -11 -17 -7 -6 4 -6 0 2 -9 17 -22 -3 -35 -25 -16 -15 11 -16 11 -10
-4 8 -22 -12 -36 -24 -17 -5 8 -9 9 -9 3 0 -6 6 -17 14 -23 11 -9 16 -9 23 1
4 7 16 18 27 23 10 6 17 13 15 16 -6 8 21 39 34 39 7 0 7 -4 -1 -12 -7 -7 -12
-18 -12 -25 0 -19 44 5 93 50 41 38 47 65 19 90 -30 27 -54 19 -107 -33 -45
-44 -76 -65 -61 -41 9 14 -38 41 -54 31 -8 -5 -17 -7 -21 -5 -3 3 -15 -5 -25
-17 -11 -12 -13 -18 -6 -14 7 4 12 2 12 -4 0 -7 -7 -9 -16 -6 -9 3 -18 6 -20
6 -2 0 -4 7 -4 15 0 8 6 15 14 15 7 0 19 7 26 15 15 18 34 20 24 3 -4 -8 -3
-10 2 -5 5 5 10 13 10 18 1 5 2 12 3 16 0 4 7 -1 14 -12 15 -19 37 -13 37 11
0 23 -28 28 -55 10 -14 -9 -25 -12 -25 -6 0 6 11 15 25 20 34 13 35 50 1 50
-13 0 -29 7 -36 15 -7 8 -22 15 -33 15 -16 0 -18 3 -9 12 17 17 15 56 -3 74
-28 29 -18 43 28 40 54 -4 64 0 81 35 16 31 7 38 -18 14 -22 -22 -63 -19 -69
5 -4 17 -2 20 15 14 20 -6 20 -6 2 25 -13 22 -25 31 -39 29 -11 -1 -21 1 -22
6 -1 5 -6 12 -12 15 -12 8 -18 97 -7 131 5 18 5 21 -3 10 -8 -12 -12 -10 -20
10 -9 24 -10 24 -10 3z m6 -115 c-3 -7 -5 -2 -5 12 0 14 2 19 5 13 2 -7 2 -19
0 -25z m10 -38 c-3 -11 -1 -18 4 -14 5 3 9 0 9 -5 0 -6 -4 -11 -10 -11 -5 0
-9 -3 -9 -7 4 -25 -3 -43 -16 -43 -8 0 -15 5 -15 10 0 6 -13 10 -30 10 -16 0
-30 5 -30 11 0 7 15 10 40 7 42 -4 48 0 28 20 -9 9 -9 12 0 12 7 0 12 7 12 15
0 8 5 15 11 15 6 0 9 -9 6 -20z m79 -51 c5 -8 -3 -10 -24 -7 -23 3 -32 0 -35
-12 -3 -13 2 -16 19 -14 15 1 24 -3 24 -11 0 -8 8 -19 18 -25 13 -8 13 -10 2
-9 -43 4 -50 -1 -50 -35 0 -19 5 -38 10 -41 20 -12 9 -25 -20 -25 -16 0 -30
-5 -30 -11 0 -7 12 -10 29 -7 23 3 27 1 23 -14 -3 -11 1 -18 10 -18 8 0 23 -8
34 -18 10 -10 27 -16 38 -14 12 3 17 -1 14 -10 -3 -8 -16 -12 -36 -10 -20 2
-32 -1 -32 -8 0 -7 7 -9 16 -6 12 5 15 2 10 -10 -3 -8 -6 -23 -6 -31 0 -13 -3
-13 -15 -3 -8 7 -15 20 -15 29 0 9 -7 26 -15 37 -8 12 -12 23 -10 26 9 9 -53
0 -73 -11 -24 -13 -37 -50 -29 -82 4 -15 2 -19 -10 -15 -8 3 -21 6 -28 6 -7 0
-15 14 -17 30 -3 18 0 30 6 29 24 -3 37 2 31 11 -4 6 -15 6 -30 0 -27 -10 -58
-3 -49 11 3 5 14 9 24 9 10 0 25 7 34 15 17 17 46 20 46 5 0 -5 5 -10 11 -10
5 0 7 5 4 10 -3 6 -1 10 4 10 6 0 11 5 11 11 0 8 -4 8 -13 1 -10 -8 -16 -3
-26 20 -15 33 -5 48 32 48 11 0 17 8 17 23 -1 20 -2 21 -14 5 -18 -25 -24 -22
-18 8 5 29 -11 45 -43 40 -11 -2 -14 -1 -7 1 6 3 12 11 12 18 0 21 17 27 50
20 38 -8 39 -22 3 -28 -16 -2 -1 -4 32 -4 33 0 48 2 33 4 -28 4 -35 23 -22 57
7 19 59 22 70 5z m51 -75 c-3 -3 -12 -4 -19 -1 -8 3 -5 6 6 6 11 1 17 -2 13
-5z m-103 -197 c19 -14 20 -27 10 -109 l-6 -58 33 0 34 0 0 -50 c0 -48 -1 -50
-28 -50 -24 0 -27 3 -22 21 8 25 -2 69 -15 69 -6 0 -9 -19 -7 -42 4 -43 4 -43
-30 -43 -39 0 -56 20 -42 47 9 16 7 54 -7 151 -9 61 35 97 80 64z m-296 -108
c65 -64 72 -76 47 -85 -13 -5 -10 -11 11 -31 28 -25 28 -38 1 -27 -14 5 -26
25 -33 57 -1 4 -3 9 -4 12 -3 7 -7 23 -9 37 0 6 -4 8 -8 5 -3 -4 -12 2 -20 13
-16 23 -40 27 -40 6 0 -8 8 -13 19 -11 16 3 23 -6 19 -27 0 -4 5 -6 12 -4 6 1
8 1 4 -2 -4 -2 -2 -11 5 -20 7 -9 -16 6 -51 33 -70 55 -79 68 -61 90 21 26 43
17 108 -46z m142 -21 c22 -36 38 -41 58 -18 11 13 12 8 6 -30 -3 -25 -6 -55
-5 -67 1 -19 -4 -23 -28 -23 -28 0 -29 1 -24 40 8 55 -18 94 -58 88 -33 -5
-37 3 -13 26 24 24 42 19 64 -16z m296 24 c6 -4 13 -15 17 -24 5 -15 2 -16
-18 -8 -18 7 -28 5 -40 -7 -19 -18 -28 -13 -19 11 3 9 17 16 33 16 20 0 23 2
11 10 -8 5 -10 10 -5 10 6 0 15 -4 21 -8z m-106 -43 c0 -5 -4 -9 -10 -9 -5 0
-10 7 -10 16 0 8 5 12 10 9 6 -3 10 -10 10 -16z m-215 -59 c4 -12 -1 -29 -11
-42 -11 -16 -15 -17 -11 -5 4 9 1 17 -5 17 -7 0 -6 5 2 15 7 9 10 18 6 22 -3
3 -6 2 -6 -4 0 -6 -6 -13 -14 -16 -12 -5 -14 6 -7 46 2 14 39 -13 46 -33z
m-91 -26 c10 -26 7 -34 -14 -34 -11 0 -20 4 -20 9 0 17 12 41 20 41 4 0 11 -7
14 -16z m506 -20 c0 -8 -9 -14 -20 -14 -19 0 -28 28 -13 43 9 9 33 -12 33 -29z
m-93 -39 c-8 -17 -19 -24 -31 -23 -30 5 -32 28 -2 28 13 0 28 5 31 10 12 19
13 10 2 -15z m-692 -4 c8 -14 -15 -103 -32 -123 -8 -9 -12 -21 -9 -26 9 -14
-25 -125 -46 -148 -14 -16 -105 -54 -129 -54 -3 0 22 81 55 180 l60 180 48 0
c26 0 49 -4 53 -9z m100 -23 c-4 -18 -18 -64 -30 -103 -12 -38 -27 -88 -33
-111 -8 -27 -20 -44 -37 -52 -31 -14 -31 -9 -5 66 12 31 32 91 46 132 13 41
27 81 29 88 2 6 12 12 20 12 13 0 15 -6 10 -32z m42 -5 c-4 -21 -9 -82 -13
-135 -5 -69 -11 -98 -20 -98 -7 0 -20 -3 -29 -7 -15 -5 -16 -1 -10 25 4 21 3
32 -4 32 -15 0 -14 16 2 32 8 7 17 31 21 53 15 90 30 135 44 135 11 0 13 -9 9
-37z m163 22 c0 -12 -13 -15 -60 -15 -47 0 -60 3 -60 15 0 12 13 15 60 15 47
0 60 -3 60 -15z m134 0 c-5 -12 -15 -14 -40 -9 -23 4 -34 2 -34 -6 0 -7 8 -9
21 -5 18 6 20 3 15 -27 -3 -18 -8 -63 -11 -99 -6 -62 -8 -67 -32 -72 -28 -5
-28 -10 -7 156 6 43 5 47 -15 47 -21 0 -27 10 -14 23 3 4 32 7 64 7 48 0 57
-3 53 -15z m66 -54 c0 -37 -3 -89 -6 -115 -6 -40 -10 -47 -28 -44 -12 2 -21 9
-20 16 1 6 2 57 3 112 1 100 1 100 26 100 24 0 25 -2 25 -69z m60 -15 c0 -79
-1 -85 -20 -83 -18 1 -20 8 -20 78 0 73 4 85 33 88 4 1 7 -37 7 -83z m64 62
c3 -13 6 -65 6 -116 0 -91 -1 -93 -22 -90 -22 3 -23 8 -26 116 -3 106 -3 112
16 112 12 0 22 -9 26 -22z m136 -16 c0 -34 5 -42 45 -71 38 -27 45 -37 45 -66
0 -19 5 -37 11 -41 15 -9 -9 -24 -38 -24 -19 0 -22 5 -21 42 0 36 -5 46 -33
70 -18 15 -36 28 -40 28 -9 0 -21 79 -14 91 4 5 15 9 26 9 15 0 19 -7 19 -38z
m58 26 c22 -22 14 -48 -13 -48 -15 0 -25 6 -25 14 0 8 -3 21 -6 30 -7 19 26
22 44 4z m76 4 c3 -5 10 -35 15 -68 6 -32 17 -87 24 -121 14 -63 14 -63 -9
-63 -13 0 -25 4 -28 8 -4 8 -23 107 -31 169 -2 12 -6 35 -10 52 -6 27 -4 31
14 31 11 0 22 -4 25 -8z m100 -121 c15 -71 33 -134 39 -140 13 -13 -4 -14 -39
-5 -17 5 -24 18 -34 66 -6 34 -19 68 -27 77 -11 10 -12 16 -4 19 12 4 6 63
-11 95 -7 14 -4 17 19 17 28 0 28 -1 57 -129z m86 12 c53 -190 52 -183 24
-181 -27 3 -30 9 -68 164 -14 56 -29 109 -32 118 -5 12 0 16 19 16 23 0 27 -8
57 -117z m47 89 c23 -51 44 -134 39 -149 -3 -8 -2 -12 3 -8 5 3 17 -19 26 -47
9 -29 20 -65 25 -80 8 -26 8 -26 -22 -13 -28 11 -33 22 -54 96 -13 46 -33 114
-44 150 -24 79 -24 79 -2 79 9 0 23 -13 29 -28z m67 6 c7 -13 24 -53 37 -90
18 -50 21 -70 12 -79 -15 -15 -56 -1 -49 17 4 10 2 12 -6 8 -8 -5 -9 -2 -4 11
7 20 -20 115 -34 115 -4 0 -10 9 -13 20 -8 29 38 27 57 -2z m-938 -34 c-3 -9
-12 -56 -18 -104 -11 -83 -14 -89 -38 -93 -14 -3 -26 -5 -27 -4 -1 2 8 58 29
165 8 46 12 52 35 52 19 0 24 -4 19 -16z m-76 -14 c0 -26 -31 -204 -36 -209
-10 -10 -11 8 -3 59 4 30 8 78 8 106 1 28 4 54 8 57 12 13 23 7 23 -13z m520
10 c0 -5 -11 -10 -25 -10 -14 0 -25 5 -25 10 0 6 11 10 25 10 14 0 25 -4 25
-10z m145 -31 c12 -19 -5 -23 -22 -6 -16 16 -16 17 -1 17 9 0 20 -5 23 -11z
m-165 -18 c0 -14 -5 -18 -20 -14 -11 3 -20 12 -20 19 0 8 9 14 20 14 13 0 20
-7 20 -19z m53 -15 c9 -7 17 -16 17 -19 0 -3 -8 -4 -17 -2 -10 2 -21 4 -25 4
-5 1 -8 8 -8 16 0 18 9 19 33 1z m-28 -36 c3 -6 -5 -10 -19 -10 -14 0 -28 5
-31 10 -3 6 5 10 19 10 14 0 28 -4 31 -10z m80 -41 c4 -17 4 -33 1 -36 -12
-13 -54 16 -58 41 -5 23 -2 26 23 26 23 0 29 -5 34 -31z m-225 -8 c0 -15 -6
-19 -27 -17 -41 5 -44 36 -4 36 24 0 31 -4 31 -19z m140 -2 c0 -16 -5 -20 -27
-17 -17 2 -29 10 -31 21 -3 13 3 17 27 17 25 0 31 -4 31 -21z"/>
<path d="M824 1077 c3 -10 6 -33 7 -50 0 -18 3 -26 6 -19 4 10 8 10 19 1 11
-9 11 -3 -2 27 -16 41 -43 75 -30 41z"/>
<path d="M785 980 c3 -5 13 -10 21 -10 8 0 14 5 14 10 0 6 -9 10 -21 10 -11 0
-17 -4 -14 -10z"/>
<path d="M830 950 c0 -13 11 -13 30 0 12 8 11 10 -7 10 -13 0 -23 -4 -23 -10z"/>
<path d="M801 876 c-16 -19 2 -56 28 -56 28 0 47 28 34 48 -13 22 -47 27 -62
8z m44 -17 c-4 -5 -12 -9 -18 -8 -9 0 -8 2 1 6 6 2 9 10 6 15 -4 7 -2 8 5 4 6
-4 9 -12 6 -17z"/>
<path d="M830 795 c0 -8 -4 -15 -10 -15 -5 0 -10 -8 -10 -17 0 -16 2 -16 11
-3 8 12 9 8 5 -16 -3 -17 0 -36 7 -43 8 -8 6 -11 -8 -12 -11 0 -14 -3 -7 -6 6
-2 12 -12 12 -20 0 -12 3 -13 14 -4 14 12 11 51 -4 51 -12 0 1 84 14 92 7 5 4
8 -6 8 -10 0 -18 -7 -18 -15z"/>
<path d="M474 825 c-7 -18 3 -35 21 -35 21 0 28 19 15 35 -16 19 -29 19 -36 0z"/>
<path d="M678 773 c7 -3 16 -2 19 1 4 3 -2 6 -13 5 -11 0 -14 -3 -6 -6z"/>
<path d="M226 507 c-15 -51 -37 -118 -48 -150 -11 -32 -17 -63 -15 -70 3 -7 8
1 12 16 4 16 13 26 19 24 7 -3 13 7 14 24 1 16 7 40 12 54 6 15 6 25 0 25 -11
0 -2 29 16 50 17 21 32 82 25 102 -4 10 -17 -18 -35 -75z"/>
<path d="M1170 896 c4 -4 16 -4 26 2 16 9 14 10 -8 9 -15 -1 -23 -6 -18 -11z"/>
<path d="M1265 879 c-4 -6 -5 -12 -2 -15 2 -3 7 2 10 11 7 17 1 20 -8 4z"/>
<path d="M570 853 c0 -6 8 -17 18 -24 16 -13 16 -13 2 6 -8 11 -16 22 -17 24
-2 2 -3 0 -3 -6z"/>
<path d="M1144 825 c-4 -9 -2 -21 4 -27 15 -15 44 -1 40 19 -4 23 -36 29 -44
8z"/>
<path d="M1236 775 c-3 -8 -1 -15 4 -15 6 0 10 7 10 15 0 8 -2 15 -4 15 -2 0
-6 -7 -10 -15z"/>
<path d="M1189 708 c-5 -18 -6 -38 -1 -34 7 8 12 36 6 36 -2 0 -4 -1 -5 -2z"/>
<path d="M490 686 c0 -2 8 -10 18 -17 15 -13 16 -12 3 4 -13 16 -21 21 -21 13z"/>
<path d="M601 394 c0 -11 3 -14 6 -6 3 7 2 16 -1 19 -3 4 -6 -2 -5 -13z"/>
<path d="M1150 308 c0 -10 23 -18 75 -27 41 -7 118 -26 171 -42 90 -28 154
-32 154 -9 0 7 -94 25 -112 22 -4 -1 -44 9 -90 22 -46 13 -101 26 -123 29 -22
3 -48 9 -58 12 -11 5 -17 2 -17 -7z"/>
<path d="M473 215 c0 -7 6 -11 14 -8 7 3 13 6 13 8 0 2 -6 5 -13 8 -8 3 -14
-1 -14 -8z"/>
<path d="M408 213 c6 -2 18 -2 25 0 6 3 1 5 -13 5 -14 0 -19 -2 -12 -5z"/>
</g>
</svg>
