<?xml version="1.0" standalone="no"?>
<!DOCTYPE svg PUBLIC "-//W3C//DTD SVG 20010904//EN"
 "http://www.w3.org/TR/2001/REC-SVG-20010904/DTD/svg10.dtd">
<svg version="1.0" xmlns="http://www.w3.org/2000/svg"
 width="165.000000pt" height="140.000000pt" viewBox="0 0 165.000000 140.000000"
 preserveAspectRatio="xMidYMid meet">
<metadata>
Created by potrace 1.10, written by Peter Selinger 2001-2011
</metadata>
<g transform="translate(0.000000,140.000000) scale(0.100000,-0.100000)"
fill="#000000" stroke="none">
<path d="M0 700 l1 -700 824 0 825 0 0 700 0 700 -825 0 -825 0 0 -700z m851
660 c8 11 8 8 3 -10 -11 -34 -5 -123 7 -131 6 -3 11 -10 12 -15 1 -5 11 -7 22
-6 14 2 26 -7 39 -29 18 -31 18 -31 -2 -25 -17 6 -19 3 -15 -14 6 -24 47 -27
69 -5 25 24 34 17 18 -14 -17 -35 -27 -39 -81 -35 -46 3 -56 -11 -28 -40 18
-18 20 -57 3 -74 -9 -9 -7 -12 9 -12 11 0 26 -7 33 -15 7 -8 23 -15 36 -15 34
0 33 -37 -1 -50 -14 -5 -25 -14 -25 -20 0 -6 11 -3 25 6 27 18 55 13 55 -10 0
-24 -22 -30 -37 -11 -7 11 -14 16 -14 12 -1 -4 -2 -11 -3 -16 0 -5 -5 -13 -10
-18 -5 -5 -6 -3 -2 5 10 17 -9 15 -24 -3 -7 -8 -19 -15 -26 -15 -8 0 -14 -7
-14 -15 0 -8 2 -15 4 -15 2 0 11 -3 20 -6 9 -3 16 -1 16 6 0 6 -5 8 -12 4 -7
-4 -5 2 6 14 10 12 22 20 25 17 4 -2 13 0 21 5 16 10 63 -17 54 -31 -15 -24
16 -3 61 41 53 52 77 60 107 33 28 -25 22 -52 -19 -90 -49 -45 -93 -69 -93
-50 0 7 5 18 12 25 8 8 8 12 1 12 -13 0 -40 -31 -34 -39 2 -3 -5 -10 -15 -16
-11 -5 -23 -16 -27 -23 -7 -10 -12 -10 -23 -1 -8 6 -14 17 -14 23 0 6 4 5 9
-3 12 -19 32 -5 24 17 -6 15 -5 15 10 4 22 -19 42 -6 25 16 -8 9 -8 13 -2 9 7
-4 14 0 17 7 9 22 54 49 68 40 9 -5 8 -9 -5 -14 -10 -3 -18 -10 -18 -15 0 -6
-5 -16 -11 -24 -7 -8 12 3 41 24 44 31 53 42 50 64 -5 47 -39 38 -109 -29 -35
-33 -73 -63 -84 -66 -37 -10 -56 -59 -22 -59 5 0 12 -6 15 -14 3 -9 0 -11 -8
-6 -9 5 -11 4 -6 -3 5 -8 13 -8 31 0 13 6 22 14 20 18 -4 7 37 40 49 40 3 0
15 -18 26 -40 18 -35 40 -53 40 -32 0 4 77 6 171 5 209 -3 207 -2 251 -127
l30 -87 -20 -20 c-12 -10 -28 -16 -36 -13 -13 5 -13 -1 4 -37 11 -24 20 -53
20 -63 0 -11 7 -28 17 -38 15 -17 15 -18 -5 -18 -12 0 -22 4 -22 9 0 5 -10 12
-22 15 -95 27 -254 66 -293 71 -25 4 -49 14 -52 22 -4 10 -9 11 -19 2 -17 -14
-93 -2 -116 19 -16 14 -18 13 -18 -3 0 -13 -5 -16 -22 -11 -13 3 -80 6 -151 6
l-127 0 6 100 c5 73 4 100 -4 100 -8 0 -12 -21 -12 -59 0 -32 -3 -79 -6 -104
l-6 -45 -45 -4 c-24 -2 -45 -2 -47 -1 -1 1 3 50 9 108 l11 105 -26 0 c-26 0
-27 -2 -41 -107 l-14 -107 -32 -10 c-24 -6 -33 -15 -33 -30 0 -12 3 -16 8 -10
17 26 143 38 377 36 225 -2 256 -5 252 -17 -2 -5 -25 -10 -50 -10 -36 -1 -47
3 -48 15 0 8 -3 10 -5 4 -3 -8 -42 -11 -122 -9 -64 2 -164 -1 -222 -6 -111 -9
-364 -60 -417 -85 -17 -8 -38 -14 -48 -14 -9 0 -29 -7 -44 -15 -18 -9 -42 -12
-65 -8 -49 8 -46 22 4 19 22 -2 37 1 34 5 -3 5 1 6 9 3 8 -3 21 2 30 10 9 10
23 13 33 9 11 -4 15 -3 11 4 -4 6 0 14 9 17 10 4 13 2 8 -6 -5 -8 -2 -9 10 -5
10 4 22 7 27 7 6 0 8 3 6 8 -3 4 11 8 31 10 20 1 38 6 42 10 3 4 27 8 55 10
56 4 65 8 65 27 0 10 -9 11 -37 4 -21 -4 -51 -10 -68 -13 -16 -3 -52 -12 -80
-21 -61 -18 -62 -18 -47 -3 25 25 11 28 -15 4 -15 -14 -58 -35 -95 -47 -37
-11 -70 -25 -73 -30 -4 -5 -13 -9 -22 -9 -12 0 -13 3 -3 15 7 8 43 106 81 217
l69 203 62 -2 c46 -1 66 -6 75 -19 7 -9 11 -20 9 -23 -13 -25 -57 -175 -54
-187 2 -8 22 40 44 107 l42 122 76 -1 c74 -1 76 -1 91 28 8 16 15 31 15 34 0
3 -26 23 -57 46 -64 45 -75 64 -60 98 20 43 51 39 114 -15 l58 -49 24 23 c13
12 28 20 32 17 5 -3 9 0 9 7 0 7 11 2 25 -11 13 -12 22 -26 20 -31 -8 -11 11
-20 28 -13 18 6 11 34 -7 34 -7 0 -23 11 -36 25 -16 17 -27 22 -35 15 -7 -5
-16 -6 -20 -2 -5 4 -5 1 -1 -5 9 -16 -10 -17 -20 -2 -3 6 1 18 9 27 14 14 18
14 41 -2 14 -9 26 -13 26 -8 0 5 -11 14 -25 20 -33 15 -34 52 -1 52 13 0 29 7
36 15 7 8 18 15 25 15 9 0 12 11 8 40 -3 24 -2 40 5 40 5 0 12 11 14 24 4 22
2 23 -37 20 -50 -4 -71 10 -81 51 l-7 30 22 -22 c28 -29 67 -30 74 -2 5 17 2
20 -14 16 -13 -4 -18 -1 -15 6 3 7 9 20 12 30 4 10 14 17 23 16 9 -1 21 -1 27
0 15 1 38 57 30 70 -4 6 1 22 10 36 12 18 13 25 4 23 -7 -2 -15 3 -17 10 -3 6
0 12 6 12 6 0 11 10 12 23 0 21 1 21 10 -3 8 -20 12 -22 20 -10z m345 -462
c-10 -6 -22 -6 -26 -2 -5 5 3 10 18 11 22 1 24 0 8 -9z m77 -23 c-3 -9 -8 -14
-10 -11 -3 3 -2 9 2 15 9 16 15 13 8 -4z m-683 -40 c14 -19 14 -19 -2 -6 -10
7 -18 18 -18 24 0 6 1 8 3 6 1 -2 9 -13 17 -24z m598 -18 c4 -20 -25 -34 -40
-19 -15 15 -1 44 19 40 10 -2 19 -11 21 -21z m62 -42 c0 -8 -4 -15 -10 -15 -5
0 -7 7 -4 15 4 8 8 15 10 15 2 0 4 -7 4 -15z m-54 -80 c-1 -8 -5 -17 -8 -21
-5 -4 -4 16 1 34 3 9 9 -1 7 -13z m-685 -22 c13 -16 12 -17 -3 -4 -17 13 -22
21 -14 21 2 0 10 -8 17 -17z m96 -285 c-3 -8 -6 -5 -6 6 -1 11 2 17 5 13 3 -3
4 -12 1 -19z m618 -85 c22 -3 77 -16 123 -29 46 -13 86 -23 90 -22 18 3 112
-15 112 -22 0 -23 -64 -19 -154 9 -53 16 -130 35 -171 42 -52 9 -75 17 -75 27
0 9 6 12 17 7 10 -3 36 -9 58 -12z m-725 -88 c0 -2 -6 -5 -13 -8 -8 -3 -14 1
-14 8 0 7 6 11 14 8 7 -3 13 -6 13 -8z m-67 -2 c-7 -2 -19 -2 -25 0 -7 3 -2 5
12 5 14 0 19 -2 13 -5z"/>
<path d="M822 1270 c0 -14 2 -19 5 -12 2 6 2 18 0 25 -3 6 -5 1 -5 -13z"/>
<path d="M820 1225 c0 -8 -5 -15 -12 -15 -9 0 -9 -3 0 -12 20 -20 14 -24 -28
-20 -25 3 -40 0 -40 -7 0 -6 14 -11 30 -11 17 0 30 -4 30 -10 0 -5 7 -10 15
-10 13 0 20 18 16 43 0 4 4 7 9 7 6 0 10 5 10 11 0 5 -4 8 -9 5 -5 -4 -7 3 -4
14 3 11 0 20 -6 20 -6 0 -11 -7 -11 -15z"/>
<path d="M846 1164 c-13 -34 -6 -53 22 -57 15 -2 0 -4 -33 -4 -33 0 -48 2 -32
4 36 6 35 20 -3 28 -33 7 -50 1 -50 -20 0 -7 -6 -15 -12 -18 -7 -2 -4 -3 7 -1
32 5 48 -11 43 -40 -6 -30 0 -33 18 -8 12 16 13 15 14 -5 0 -15 -6 -23 -17
-23 -37 0 -47 -15 -32 -48 10 -23 16 -28 26 -20 9 7 13 7 13 -1 0 -6 -5 -11
-11 -11 -5 0 -7 -4 -4 -10 3 -5 1 -10 -4 -10 -6 0 -11 5 -11 10 0 15 -29 12
-46 -5 -9 -8 -24 -15 -34 -15 -10 0 -21 -4 -24 -9 -9 -14 22 -21 49 -11 15 6
26 6 30 0 6 -9 -7 -14 -31 -11 -6 1 -9 -11 -6 -29 2 -16 10 -30 17 -30 7 0 20
-3 28 -6 12 -4 14 0 10 15 -8 32 5 69 29 82 20 11 82 20 73 11 -2 -3 2 -14 10
-26 8 -11 15 -28 15 -37 0 -9 7 -22 15 -29 12 -10 15 -10 15 3 0 8 3 23 6 31
5 12 2 15 -10 10 -9 -3 -16 -1 -16 6 0 7 12 10 32 8 20 -2 33 2 36 10 3 9 -2
13 -14 10 -11 -2 -28 4 -38 14 -11 10 -26 18 -34 18 -9 0 -13 7 -10 18 4 15 0
17 -23 14 -17 -3 -29 0 -29 7 0 6 14 11 30 11 29 0 40 13 20 25 -5 3 -10 22
-10 41 0 34 7 39 50 35 11 -1 11 1 -2 9 -10 6 -18 17 -18 25 0 8 -9 12 -24 11
-17 -2 -22 1 -19 14 3 12 12 15 35 12 21 -3 29 -1 24 7 -11 17 -63 14 -70 -5z
m8 -128 c13 -30 13 -36 2 -27 -11 9 -15 9 -19 -1 -3 -7 -6 1 -6 19 -1 17 -4
40 -7 50 -13 34 14 0 30 -41z m-34 -56 c0 -5 -6 -10 -14 -10 -8 0 -18 5 -21
10 -3 6 3 10 14 10 12 0 21 -4 21 -10z m40 -30 c-19 -13 -30 -13 -30 0 0 6 10
10 23 10 18 0 19 -2 7 -10z"/>
<path d="M948 1093 c7 -3 16 -2 19 1 4 3 -2 6 -13 5 -11 0 -14 -3 -6 -6z"/>
<path d="M796 891 c-13 -15 -16 -30 -12 -58 14 -97 16 -135 7 -151 -14 -27 3
-47 42 -47 34 0 34 0 30 43 -2 23 1 42 7 42 13 0 23 -44 15 -69 -5 -18 -2 -21
22 -21 27 0 28 2 28 50 l0 50 -34 0 -33 0 6 58 c10 82 9 95 -10 109 -25 18
-48 16 -68 -6z m67 -23 c8 -12 7 -21 -2 -32 -19 -22 -48 -20 -61 5 -23 41 38
68 63 27z m-9 -66 c-13 -8 -26 -92 -14 -92 15 0 18 -39 4 -51 -11 -9 -14 -8
-14 4 0 8 -6 18 -12 20 -7 3 -4 6 7 6 14 1 16 4 8 12 -7 7 -10 26 -7 43 4 24
3 28 -5 16 -9 -13 -11 -13 -11 3 0 9 5 17 10 17 6 0 10 7 10 15 0 8 8 15 18
15 10 0 13 -3 6 -8z"/>
<path d="M834 872 c3 -5 0 -13 -6 -15 -9 -4 -10 -6 -1 -6 17 -1 25 16 12 25
-7 4 -9 3 -5 -4z"/>
<path d="M460 835 c-18 -22 -9 -35 61 -90 35 -27 58 -42 51 -33 -7 9 -9 18 -5
20 4 3 2 3 -4 2 -7 -2 -12 0 -12 4 4 21 -3 30 -19 27 -11 -2 -19 3 -19 11 0
21 24 17 40 -6 8 -11 17 -17 20 -13 4 3 8 1 8 -5 2 -14 6 -30 9 -37 1 -3 3 -8
4 -12 7 -32 19 -52 33 -57 27 -11 27 2 -1 27 -21 20 -24 26 -11 31 25 9 18 21
-47 85 -65 63 -87 72 -108 46z m50 -10 c13 -16 6 -35 -15 -35 -18 0 -28 17
-21 35 7 19 20 19 36 0z"/>
<path d="M646 784 c-24 -23 -20 -31 13 -26 40 6 66 -33 58 -88 -5 -39 -4 -40
24 -40 24 0 29 4 28 23 -1 12 2 42 5 67 6 38 5 43 -6 30 -20 -23 -36 -18 -58
18 -22 35 -40 40 -64 16z m51 -10 c-3 -3 -12 -4 -19 -1 -8 3 -5 6 6 6 11 1 17
-2 13 -5z"/>
<path d="M990 790 c12 -8 9 -10 -11 -10 -16 0 -30 -7 -33 -16 -9 -24 0 -29 19
-11 12 12 22 14 40 7 20 -8 23 -7 18 8 -7 19 -23 32 -38 32 -5 0 -3 -5 5 -10z"/>
<path d="M880 756 c0 -9 5 -16 10 -16 6 0 10 4 10 9 0 6 -4 13 -10 16 -5 3
-10 -1 -10 -9z"/>
<path d="M639 723 c-7 -40 -5 -51 7 -46 8 3 14 10 14 16 0 6 3 7 6 4 4 -4 1
-13 -6 -22 -8 -10 -9 -15 -2 -15 6 0 9 -8 5 -17 -4 -12 0 -11 11 5 20 26 14
57 -15 72 -10 6 -20 7 -20 3z"/>
<path d="M566 664 c-10 -26 -7 -34 14 -34 11 0 20 4 20 9 0 17 -12 41 -20 41
-4 0 -11 -7 -14 -16z"/>
<path d="M1067 673 c-15 -15 -6 -43 13 -43 11 0 20 6 20 14 0 17 -24 38 -33
29z"/>
<path d="M1005 620 c-3 -5 -18 -10 -31 -10 -30 0 -28 -23 2 -28 12 -1 23 6 31
23 11 25 10 34 -2 15z"/>
<path d="M154 430 c-33 -99 -58 -180 -55 -180 24 0 115 38 129 54 21 23 55
134 46 148 -3 5 1 17 9 26 17 20 40 109 32 123 -4 5 -27 9 -53 9 l-48 0 -60
-180z m104 100 c-6 -19 -16 -42 -22 -50 -18 -21 -27 -50 -16 -50 6 0 6 -10 0
-25 -5 -14 -11 -38 -12 -54 -1 -17 -7 -27 -14 -24 -6 2 -15 -8 -19 -24 -4 -15
-9 -23 -12 -16 -2 7 4 38 15 70 11 32 33 99 48 150 18 57 31 85 35 75 3 -9 2
-33 -3 -52z"/>
<path d="M385 598 c-2 -7 -16 -47 -29 -88 -14 -41 -34 -101 -46 -132 -26 -75
-26 -80 5 -66 17 8 29 25 37 52 6 23 21 73 33 111 36 113 39 135 20 135 -8 0
-18 -6 -20 -12z"/>
<path d="M422 563 c-6 -27 -14 -66 -18 -88 -4 -22 -13 -46 -21 -53 -16 -16
-17 -32 -2 -32 7 0 8 -11 4 -32 -6 -26 -5 -30 10 -25 9 4 22 7 29 7 9 0 15 29
20 98 4 53 9 114 13 135 4 28 2 37 -9 37 -9 0 -19 -18 -26 -47z"/>
<path d="M500 595 c0 -12 13 -15 60 -15 47 0 60 3 60 15 0 12 -13 15 -60 15
-47 0 -60 -3 -60 -15z"/>
<path d="M637 603 c-13 -13 -7 -23 14 -23 20 0 21 -4 15 -47 -21 -166 -21
-161 7 -156 24 5 26 10 32 72 3 36 8 81 11 99 5 30 3 33 -15 27 -13 -4 -21 -2
-21 5 0 8 11 10 34 6 25 -5 35 -3 40 9 4 12 -5 15 -53 15 -32 0 -61 -3 -64 -7z"/>
<path d="M769 510 c-1 -55 -2 -106 -3 -112 -1 -7 8 -14 20 -16 18 -3 22 4 28
44 3 26 6 78 6 115 0 67 -1 69 -25 69 -25 0 -25 0 -26 -100z"/>
<path d="M853 603 c-9 -3 -13 -29 -13 -82 0 -70 2 -77 20 -78 19 -2 20 4 20
83 0 46 -3 84 -7 83 -5 0 -14 -3 -20 -6z"/>
<path d="M902 498 c3 -108 4 -113 26 -116 21 -3 22 -1 22 90 0 113 -6 138 -32
138 -19 0 -19 -6 -16 -112z"/>
<path d="M1035 601 c-7 -12 5 -91 14 -91 4 0 22 -13 40 -28 28 -24 33 -34 33
-70 -1 -37 2 -42 21 -42 29 0 53 15 38 24 -6 4 -11 22 -11 41 0 29 -7 39 -45
66 -40 29 -45 37 -45 71 0 31 -4 38 -19 38 -11 0 -22 -4 -26 -9z"/>
<path d="M1094 594 c3 -9 6 -22 6 -30 0 -8 10 -14 25 -14 27 0 35 26 13 48
-18 18 -51 15 -44 -4z"/>
<path d="M1175 579 c4 -17 8 -40 10 -52 8 -62 27 -161 31 -169 3 -4 15 -8 28
-8 23 0 23 0 9 63 -7 34 -18 89 -24 121 -12 71 -15 76 -40 76 -18 0 -20 -4
-14 -31z"/>
<path d="M1238 593 c17 -32 23 -91 11 -95 -8 -3 -7 -9 4 -19 8 -9 21 -43 27
-77 10 -48 17 -61 34 -66 35 -9 52 -8 39 5 -6 6 -24 69 -39 140 -29 128 -29
129 -57 129 -23 0 -26 -3 -19 -17z"/>
<path d="M1324 594 c3 -9 18 -62 32 -118 38 -155 41 -161 68 -164 28 -2 29 -9
-24 181 -30 109 -34 117 -57 117 -19 0 -24 -4 -19 -16z"/>
<path d="M1400 603 c0 -4 9 -36 20 -72 11 -36 31 -104 44 -150 21 -74 26 -85
54 -96 30 -13 30 -13 22 13 -5 15 -16 51 -25 80 -9 28 -21 50 -26 47 -5 -4 -6
0 -3 8 5 15 -16 98 -39 149 -10 24 -47 41 -47 21z"/>
<path d="M1457 590 c3 -11 9 -20 13 -20 14 0 41 -95 34 -115 -5 -13 -4 -16 4
-11 8 4 10 2 6 -8 -7 -18 34 -32 49 -17 9 9 6 29 -12 79 -31 89 -46 112 -75
112 -19 0 -23 -4 -19 -20z"/>
<path d="M522 518 c-21 -107 -30 -163 -29 -165 1 -1 13 1 27 4 24 4 27 10 38
93 6 48 15 95 18 104 5 12 0 16 -19 16 -23 0 -27 -6 -35 -52z"/>
<path d="M477 553 c-4 -3 -7 -29 -8 -57 0 -28 -4 -76 -8 -106 -8 -51 -7 -69 3
-59 5 5 36 183 36 209 0 20 -11 26 -23 13z"/>
<path d="M970 550 c0 -5 11 -10 25 -10 14 0 25 5 25 10 0 6 -11 10 -25 10 -14
0 -25 -4 -25 -10z"/>
<path d="M1143 513 c9 -9 19 -14 23 -11 10 10 -6 28 -24 28 -15 0 -15 -1 1
-17z"/>
<path d="M960 506 c0 -7 9 -16 20 -19 15 -4 20 0 20 14 0 12 -7 19 -20 19 -11
0 -20 -6 -20 -14z"/>
<path d="M1020 485 c0 -8 3 -15 8 -16 4 0 15 -2 25 -4 9 -2 17 -1 17 2 0 7
-33 32 -42 33 -5 0 -8 -7 -8 -15z"/>
<path d="M975 450 c3 -5 17 -10 31 -10 14 0 22 4 19 10 -3 6 -17 10 -31 10
-14 0 -22 -4 -19 -10z"/>
<path d="M1048 414 c4 -25 46 -54 58 -41 3 3 3 19 -1 36 -5 26 -11 31 -34 31
-25 0 -28 -3 -23 -26z"/>
<path d="M822 404 c2 -10 15 -18 31 -20 21 -2 27 2 27 17 0 15 -7 19 -31 19
-23 0 -30 -4 -27 -16z"/>
<path d="M962 403 c2 -11 14 -19 31 -21 22 -3 27 1 27 17 0 17 -6 21 -31 21
-24 0 -30 -4 -27 -17z"/>
</g>
</svg>
